<svg width="218" height="82" viewBox="0 0 218 82" fill="none" xmlns="http://www.w3.org/2000/svg">
<g clip-path="url(#clip0_1115_2856)">
<path d="M68.889 39.4469C65.7287 39.4469 64.3478 36.3724 63.8565 34.515L62.9668 34.7284C63.1527 36.1906 63.5511 38.8093 63.7954 39.4469C64.0716 39.5997 64.531 39.8131 65.2985 40.0871C66.066 40.3005 67.0486 40.5428 68.3074 40.5428C72.3892 40.5428 75.1193 37.9847 75.1193 34.789C75.1193 31.3799 72.206 29.9493 69.8105 28.7322C67.3859 27.4834 65.912 26.448 65.912 24.2271C65.912 22.5832 66.9557 20.8786 69.3166 20.8786C71.9856 20.8786 72.7849 22.9784 73.3373 24.9279L74.227 24.7461C73.98 22.8282 73.8286 21.64 73.7065 20.544C72.538 20.1778 71.2499 19.8433 69.8398 19.8433C65.8801 19.8433 63.5165 22.3408 63.5165 25.2625C63.5165 28.7032 66.6157 30.226 68.581 31.2614C70.8834 32.4785 72.5698 33.5429 72.5698 35.798C72.5698 38.0532 71.1889 39.4521 68.889 39.4521" fill="#F5F5F8" transform="translate(3 0)" />
<path d="M83.4928 39.2335C81.1903 39.0201 80.9141 38.7145 81.5913 36.7991C81.9897 35.5214 82.4491 34.241 82.9404 32.8711H89.4788C90.1533 34.7284 90.7668 36.3724 91.1651 37.5605C91.5635 38.7487 91.2873 38.9911 89.3539 39.2361V40.0871H96.8722V39.2361C94.8778 39.0543 94.4794 38.7803 93.4968 36.1616C91.5343 30.8635 89.4761 25.0807 87.5746 19.8433L86.6239 20.1173L80.2714 36.101C79.1959 38.7803 78.7683 38.9621 76.835 39.2361V40.0871H83.4955V39.2361L83.4928 39.2335ZM86.2866 23.7977H86.3477L89.0459 31.5617H83.3999C84.3214 29.0668 85.3013 26.4164 86.2839 23.7977" fill="#F5F5F8" transform="translate(3 0)"/>
<path d="M98.1252 22.3067C98.5236 21.6059 99.137 21.3635 101.684 21.3635H103.585V36.3409C103.585 38.7462 103.341 39.0492 100.547 39.2336V40.0872H109.356V39.2336C106.44 39.0492 106.193 38.7462 106.193 36.3409V21.3635H108.374C110.676 21.3635 111.197 21.5769 111.688 22.3067C112.057 22.7941 112.331 23.5555 112.67 25.015L113.56 24.9228C113.406 23.1576 113.255 20.9341 113.255 19.5352H112.609C112.118 20.1121 111.874 20.2965 111.045 20.2965H98.9246C98.0668 20.2965 97.6658 20.2359 97.2355 19.5352H96.6221C96.561 21.2107 96.407 23.1893 96.2529 25.015H97.1426C97.5117 23.6766 97.7561 22.8231 98.1252 22.3067Z" fill="#F5F5F8" transform="translate(3 0)"/>
<path d="M128.228 38.8673C130.039 37.8635 131.173 36.3091 131.173 34.27C131.173 31.2245 128.78 29.8861 125.742 29.4303V29.3381C127.46 28.8823 129.885 27.6942 129.885 24.8014C129.885 23.3999 129.271 22.0615 128.167 21.3318C127.216 20.6626 125.864 20.2964 123.564 20.2964H115.677V21.1473C118.131 21.3291 118.256 21.5135 118.256 24.0401V36.3091C118.256 38.8673 118.072 39.049 115.433 39.2308V40.0818H122.215C124.64 40.0818 126.666 39.7156 128.23 38.8646M120.834 23.0943C120.834 22.0905 120.956 21.7559 121.233 21.5715C121.541 21.3897 122.215 21.2659 122.983 21.2659C125.896 21.2659 127.065 23.0916 127.065 25.1624C127.065 27.7205 125.654 29.0589 122.276 29.0589H120.834V23.0916V23.0943ZM120.834 36.2775V30.0679H122.247C125.989 30.0679 128.14 31.4379 128.14 34.573C128.14 37.7081 125.899 39.0174 123.384 39.049C121.421 39.049 120.837 38.4694 120.837 36.2801" fill="#F5F5F8" transform="translate(3 0)"/>
<path d="M138.904 39.2335C136.601 39.0201 136.325 38.7145 137.002 36.7991C137.401 35.5214 137.86 34.241 138.351 32.8711H144.89C145.564 34.7284 146.178 36.3724 146.576 37.5605C146.974 38.7487 146.698 38.9911 144.765 39.2361V40.0871H152.283V39.2361C150.289 39.0543 149.89 38.7803 148.908 36.1616C146.945 30.8635 144.887 25.0807 142.985 19.8433L142.032 20.1173L135.68 36.101C134.604 38.7803 134.177 38.9621 132.243 39.2361V40.0871H138.904V39.2361V39.2335ZM141.697 23.7977H141.759L144.459 31.5617H138.813C139.735 29.0668 140.715 26.4164 141.7 23.7977" fill="#F5F5F8" transform="translate(3 0)"/>
<path d="M154.272 23.7371C155.962 26.5692 157.066 28.5478 158.139 30.4341C158.66 31.3456 158.785 31.6223 158.785 32.2308V36.2801C158.785 38.8672 158.508 39.0517 155.778 39.2334V40.087H164.462V39.2334C161.639 39.0517 161.392 38.8383 161.392 36.2801V32.1386C161.392 31.3483 161.485 31.0137 161.884 30.2207C163.358 27.5414 164.401 25.7762 165.782 23.5527C166.98 21.6953 167.317 21.3924 169.434 21.1473V20.2964H162.651V21.1473C165.047 21.3924 165.137 21.6347 164.431 23.1575C163.57 25.0148 161.913 27.9971 160.776 30.0073C159.456 27.7258 157.953 25.2282 156.665 22.7913C156.081 21.7875 156.02 21.4213 158.2 21.1473V20.2964H150.865V21.1473C152.706 21.3291 153.046 21.6663 154.272 23.7345" fill="#F5F5F8" transform="translate(3 0)"/>
<path d="M186.613 35.2739L185.694 35.1527C185.293 36.3699 184.712 37.4053 184.189 38.0139C183.514 38.8042 182.654 39.0492 180.322 39.0492C178.787 39.0492 177.714 39.0176 177.13 38.654C176.577 38.2589 176.394 37.6187 176.394 36.1881V30.4343H179.31C181.979 30.4343 182.194 30.6161 182.592 32.808H183.482V26.962H182.592C182.194 29.0011 182.04 29.2461 179.278 29.2461H176.394V22.3357C176.394 21.4215 176.455 21.3609 177.406 21.3609H179.74C181.95 21.3609 182.778 21.5743 183.209 22.2119C183.607 22.8811 183.915 23.5502 184.189 24.8306L185.078 24.6778C184.985 23.1261 184.834 21.0553 184.834 20.2939H171.146V21.1449C173.539 21.3583 173.786 21.4479 173.786 24.1904V36.3067C173.786 38.7726 173.542 39.015 170.748 39.2284V40.0793H185.54C185.817 39.1362 186.43 36.2751 186.613 35.2687" fill="#F5F5F8" transform="translate(3 0)"/>
<path d="M201.093 20.2964V21.1473C203.581 21.4529 203.762 21.6953 203.18 23.4315C202.197 26.477 199.866 32.4126 198.333 36.2195H198.272C196.217 30.9821 193.975 25.1071 193.176 22.9467C192.685 21.6058 192.807 21.395 194.987 21.15V20.299H187.469V21.1816C189.277 21.3344 189.771 21.5768 190.661 23.8609C192.44 28.2738 194.958 34.8206 197.013 40.3927H197.964C200.267 34.1198 203.52 26.3874 204.346 24.4089C205.512 21.669 205.913 21.395 207.997 21.1526V20.3017H201.093V20.2964Z" fill="#F5F5F8" transform="translate(3 0)"/>
<path d="M73.8395 47.9116C75.6215 48.0381 76.1553 48.3411 76.3067 49.3264C76.4076 50.1088 76.4846 51.1679 76.4846 53.4916V55.4095C76.4846 59.5747 75.34 62.6018 71.6752 62.6018C68.5202 62.6018 66.8922 60.2808 66.8922 56.2157V50.4619C66.8922 48.1909 67.0941 48.0381 69.1044 47.9116V47.2056H62.5156V47.9116C64.526 48.0881 64.7278 48.1882 64.7278 50.4619V56.7716C64.7278 59.7249 65.4422 61.6165 66.9666 62.7783C68.0846 63.6372 69.5612 63.9902 71.0378 63.9902C72.7162 63.9902 74.4211 63.4607 75.5923 62.2488C77.0689 60.7076 77.5257 58.5631 77.5257 55.586V53.4916C77.5257 51.1705 77.5788 50.0825 77.6531 49.4028C77.7806 48.3674 78.3649 48.0144 79.8919 47.9143V47.2082H73.8369V47.9143L73.8395 47.9116Z" fill="#F5F5F8" transform="translate(3 0)"/>
<path d="M92.687 47.9115C94.4424 48.0116 95.0532 48.341 95.1807 49.4764C95.2577 50.1825 95.3586 51.3443 95.3586 53.6654V59.875H95.2816L84.672 47.2028H80.9062V47.9089C82.1013 48.009 82.6617 48.2119 83.1689 48.8415C83.6284 49.4475 83.6788 49.5476 83.6788 51.3917V56.9454C83.6788 59.2664 83.6018 60.4783 83.5248 61.2607C83.3973 62.4963 82.7626 62.8256 81.286 62.8994V63.6055H87.3171V62.8994C85.5856 62.7993 85.0013 62.4963 84.8739 61.208C84.7969 60.4756 84.7225 59.2637 84.7225 56.9427V50.6067H84.773L95.6109 63.832H96.3996V53.6601C96.3996 51.3127 96.4501 50.1772 96.5537 49.4211C96.6546 48.3093 97.2654 47.9827 98.6888 47.9062V47.2002H92.6843V47.9062L92.687 47.9115Z" fill="#F5F5F8" transform="translate(3 0)"/>
<path d="M100.261 47.9116C102.348 48.0618 102.55 48.2146 102.55 50.3591V60.4547C102.55 62.5992 102.345 62.752 100.261 62.9021V63.6082H107.004V62.9021C104.916 62.752 104.714 62.6255 104.714 60.4547V50.3591C104.714 48.2146 104.919 48.0618 107.004 47.9116V47.2056H100.261V47.9116Z" fill="#F5F5F8" transform="translate(3 0)"/>
<path d="M119.724 47.9116C121.785 48.1645 121.937 48.3648 121.453 49.8032C120.638 52.3271 118.707 57.2484 117.435 60.4046H117.385C115.68 56.0629 113.823 51.1916 113.162 49.4001C112.756 48.2884 112.857 48.1145 114.663 47.9116V47.2056H108.43V47.938C109.93 48.0644 110.339 48.2647 111.075 50.1589C112.551 53.8183 114.636 59.2454 116.341 63.8638H117.13C119.039 58.6658 121.735 52.2533 122.423 50.612C123.389 48.3411 123.721 48.1145 125.45 47.9116V47.2056H119.727V47.9116H119.724Z" fill="#F5F5F8" transform="translate(3 0)"/>
<path d="M137.73 61.8958C137.169 62.5518 136.458 62.7546 134.524 62.7546C133.252 62.7546 132.363 62.7309 131.879 62.4253C131.423 62.096 131.268 61.5664 131.268 60.3809V55.6097H133.688C135.9 55.6097 136.078 55.7599 136.41 57.5777H137.148V52.7302H136.41C136.081 54.4216 135.953 54.6244 133.661 54.6244H131.268V48.8943C131.268 48.1382 131.319 48.0881 132.11 48.0881H134.044C135.876 48.0881 136.561 48.2647 136.92 48.7942C137.252 49.3501 137.507 49.906 137.735 50.9651L138.473 50.8386C138.396 49.5529 138.269 47.8352 138.269 47.2056H126.921V47.9116C128.905 48.0881 129.109 48.1645 129.109 50.4355V60.481C129.109 62.5254 128.905 62.7283 126.592 62.9048V63.6108H138.853C139.084 62.8284 139.591 60.4547 139.743 59.6222L138.981 59.522C138.649 60.5337 138.165 61.3899 137.732 61.8958" fill="#F5F5F8" transform="translate(3 0)"/>
<path d="M154.519 61.9695C153.908 61.3135 153.375 60.6575 152.458 59.3455C151.696 58.21 150.626 56.5187 150.193 55.6861C152.076 54.8773 153.425 53.5416 153.425 51.3708C153.425 49.8559 152.764 48.7204 151.744 48.0644C150.777 47.4348 149.532 47.2056 147.673 47.2056H141.363V47.9116C143.347 48.0881 143.551 48.1645 143.551 50.3091V60.4573C143.551 62.6018 143.323 62.7546 141.235 62.9048V63.6108H147.928V62.9048C145.893 62.7546 145.662 62.6018 145.662 60.4573V56.4449H146.475C147.798 56.4449 148.23 56.7479 148.663 57.4539C149.426 58.6895 150.344 60.2544 151.234 61.4927C152.379 63.134 153.446 63.6872 155.356 63.79C155.661 63.8137 155.943 63.8137 156.245 63.8137L156.346 63.1577C155.786 63.0075 155.202 62.7309 154.514 61.9722M149.654 54.9063C149.019 55.4095 148.177 55.6124 146.881 55.6124H145.66V49.4028C145.66 48.7204 145.761 48.4175 145.941 48.291C146.143 48.1408 146.576 48.0381 147.314 48.0381C149.248 48.0381 151.053 49.0471 151.053 51.7739C151.053 53.1359 150.647 54.1476 149.654 54.9037" fill="#F5F5F8" transform="translate(3 0)"/>
<path d="M162.835 54.1979C160.824 53.1652 159.605 52.3063 159.605 50.4621C159.605 49.0974 160.471 47.6853 162.428 47.6853C164.643 47.6853 165.304 49.4268 165.761 51.0417L166.5 50.8916C166.298 49.3003 166.168 48.3176 166.067 47.4087C165.1 47.1057 164.03 46.8291 162.861 46.8291C159.579 46.8291 157.619 48.8998 157.619 51.321C157.619 54.1716 160.19 55.4361 161.818 56.2924C163.724 57.304 165.124 58.1866 165.124 60.0545C165.124 61.9224 163.979 63.0842 162.073 63.0842C159.451 63.0842 158.307 60.534 157.9 58.9954L157.162 59.1719C157.313 60.3838 157.645 62.5547 157.85 63.0842C158.081 63.2107 158.461 63.3872 159.095 63.6137C159.73 63.7903 160.545 63.9931 161.589 63.9931C164.973 63.9931 167.238 61.8723 167.238 59.222C167.238 56.3951 164.821 55.2096 162.837 54.1979" fill="#F5F5F8" transform="translate(3 0)"/>
<path d="M168.81 47.9116C170.897 48.0618 171.099 48.2146 171.099 50.3591V60.4547C171.099 62.5992 170.894 62.752 168.81 62.9021V63.6082H175.552V62.9021C173.465 62.752 173.263 62.6255 173.263 60.4547V50.3591C173.263 48.2146 173.468 48.0618 175.552 47.9116V47.2056H168.81V47.9116Z" fill="#F5F5F8" transform="translate(3 0)"/>
<path d="M190.791 46.5734C190.385 47.0529 190.181 47.2031 189.495 47.2031H179.444C178.732 47.2031 178.403 47.153 178.044 46.5734H177.537C177.486 47.9618 177.359 49.6032 177.231 51.1154H177.97C178.275 50.0062 178.48 49.2975 178.785 48.8708C179.114 48.2912 179.624 48.0883 181.738 48.0883H183.316V60.5049C183.316 62.4992 183.111 62.7521 180.798 62.9023V63.6084H188.099V62.9023C185.682 62.7521 185.477 62.4992 185.477 60.5049V48.0883H187.283C189.19 48.0883 189.623 48.2648 190.032 48.8708C190.337 49.2738 190.566 49.9061 190.847 51.1154L191.586 51.039C191.458 49.5742 191.331 47.7326 191.331 46.5708H190.797L190.791 46.5734Z" fill="#F5F5F8" transform="translate(3 0)"/>
<path d="M202.216 47.9119C204.2 48.1148 204.277 48.315 203.69 49.5769C202.979 51.1181 201.606 53.5893 200.663 55.257C199.569 53.3654 198.323 51.2947 197.253 49.2766C196.769 48.4441 196.719 48.1411 198.525 47.9146V47.2085H192.443V47.9146C193.97 48.0647 194.249 48.344 195.269 50.0617C196.669 52.4091 197.582 54.0478 198.474 55.6127C198.907 56.3688 199.011 56.598 199.011 57.1012V60.4576C199.011 62.6021 198.78 62.7549 196.517 62.9051V63.6111H203.719V62.9051C201.38 62.7549 201.175 62.5784 201.175 60.4576V57.0248C201.175 56.3688 201.252 56.0922 201.582 55.4362C202.803 53.2152 203.669 51.7504 204.814 49.9089C205.804 48.3703 206.086 48.1174 207.841 47.9146V47.2085H202.219V47.9146L202.216 47.9119Z" fill="#F5F5F8" transform="translate(3 0)"/>
<path d="M43.0645 0H26.9975C24.7056 0 24.1638 1.9601 24.1638 1.9601C24.1638 1.9601 23.6327 0 21.3275 0H5.26052L0.00488281 5.21112V58.0362C0.00488281 72.1047 10.8428 82 24.1612 82C37.4795 82 48.3175 72.1047 48.3175 58.0362V5.21112L43.0645 0ZM43.0645 58.0362C43.0645 68.4031 34.5848 76.7889 24.1612 76.7889C13.7375 76.7889 5.25786 68.4031 5.25786 58.0362V5.21112H43.0645V58.0362Z" fill="white"/>
<path d="M15.7752 7.4084L16.0541 7.42421C16.1417 7.42947 16.1709 7.43738 16.1762 7.43738C16.1868 7.45582 16.1922 7.51905 16.1922 7.62706V9.69518C16.1922 10.0271 16.1922 10.0324 15.8018 10.0614C15.7301 10.0666 15.6743 10.1246 15.6743 10.1984V10.3723C15.6743 10.4487 15.7354 10.5092 15.8124 10.5092H17.4749C17.5519 10.5092 17.613 10.4487 17.613 10.3723V10.1984C17.613 10.1246 17.5572 10.0666 17.4855 10.0614C17.1031 10.035 17.1031 10.0271 17.1031 9.69518V6.83143L17.0473 6.72078L16.9251 6.69971C16.4471 6.84461 16.0886 6.93155 15.7646 6.98687C15.6982 6.99741 15.6504 7.05537 15.6504 7.12123V7.2714C15.6504 7.34253 15.7062 7.40313 15.7805 7.4084" fill="white"/>
<path d="M21.5346 9.20505C21.6568 9.20505 21.7737 9.1708 21.9224 9.0944L21.9463 9.08123C21.7179 9.63185 21.2186 10.0244 20.5786 10.1298L20.4883 10.1851L20.4644 10.2878L20.4989 10.4775L20.6344 10.5908H20.637C20.8681 10.5829 21.3169 10.5012 21.5771 10.4011C22.4907 10.0376 23.0351 9.22613 23.0351 8.23554C23.0351 7.31345 22.504 6.69434 21.7126 6.69434C20.7751 6.69434 20.3369 7.48733 20.3369 8.02478C20.3369 8.70976 20.8388 9.20505 21.532 9.20505M21.617 7.18173C22.0684 7.18173 22.0923 8.03795 22.0923 8.2092C22.0923 8.31985 22.087 8.41996 22.0764 8.5148C21.9941 8.54905 21.9091 8.56749 21.8268 8.56749C21.4603 8.56749 21.2691 8.18812 21.2691 7.81401C21.2691 7.59535 21.3434 7.18173 21.6196 7.18173" fill="white"/>
<path d="M26.3043 9.99561C26.0228 9.99561 25.7997 9.80329 25.6775 9.6979C25.5713 9.61096 25.4385 9.6136 25.3296 9.6979C25.2818 9.73215 25.1278 9.86124 25.1172 10.0351C25.1172 10.151 25.173 10.2591 25.2898 10.3592C25.4173 10.4567 25.6749 10.5726 25.9803 10.5726C26.384 10.5726 27.6507 10.1379 27.6507 9.12621C27.6507 8.70995 27.4064 8.37273 27.0054 8.20939C27.0798 8.1567 27.1435 8.10928 27.1966 8.05922C27.3374 7.92749 27.4144 7.75361 27.4144 7.5771C27.4144 7.04756 27.0027 6.69189 26.3893 6.69189C26.0547 6.69189 25.736 6.83153 25.5076 7.08444L25.2447 7.44537L25.2606 7.62452L25.396 7.75361L25.5049 7.7905L25.6032 7.73517C25.7944 7.47435 25.9617 7.3637 26.1609 7.3637C26.2698 7.3637 26.5247 7.40059 26.5247 7.74044C26.5247 7.90642 26.4477 8.15143 25.7838 8.36483C25.7174 8.3859 25.6775 8.4544 25.6908 8.5229L25.7307 8.70205L25.7917 8.78899L25.898 8.80479C25.9829 8.78372 26.0918 8.76001 26.1848 8.76001C26.3919 8.76001 26.7372 8.88383 26.7372 9.34751C26.7372 9.58989 26.6814 9.99561 26.3069 9.99561" fill="white"/>
<path d="M29.9692 9.53449H31.2704V9.74789C31.2704 9.93933 31.1421 10.0447 30.8854 10.064C30.8137 10.0693 30.7579 10.1299 30.7579 10.201V10.3749C30.7579 10.4513 30.819 10.5119 30.896 10.5119H32.4868C32.5638 10.5119 32.6249 10.4513 32.6249 10.3749V10.201C32.6249 10.1299 32.5717 10.0719 32.5 10.064C32.277 10.0447 32.1654 9.94548 32.1654 9.76633V9.53449H32.5452C32.6222 9.53449 32.6833 9.4739 32.6833 9.3975V9.09716C32.6833 9.02076 32.6222 8.96016 32.5452 8.96016H32.1654V6.86307C32.1654 6.78667 32.1043 6.72607 32.0273 6.72607H31.69L31.5812 6.77876C31.0766 7.41369 30.495 8.19878 29.855 9.1156L29.8311 9.192V9.40013C29.8311 9.47653 29.8921 9.53713 29.9692 9.53713M31.2704 7.98011V8.96016H30.6118C30.8615 8.57025 31.0872 8.24093 31.2704 7.98011Z" fill="white"/>
<path d="M0 5.21094H5.26626V7.67423L0 5.21094Z" fill="white"/>
<path d="M48.3258 5.21094H43.0596V7.67423L48.3258 5.21094Z" fill="white"/>
<path d="M29.8074 42.3715L29.1382 41.7155L20.4886 33.2876C18.3109 30.9824 16.6484 28.3795 16.6484 25.1179C16.6484 20.6339 20.1805 16.3607 25.6751 16.3607C32.6251 16.3607 35.249 23.1236 33.4351 26.775C32.4074 28.8405 29.5843 29.9523 28.0228 29.4148C27.8634 29.3595 27.8555 29.1224 28.0042 29.0434C29.2258 28.4032 30.2031 27.1228 30.2084 25.2496C30.2164 23.0893 28.6256 21.0001 25.8186 21.0001C22.6476 21.0001 19.2059 25.0547 23.9861 29.8917C27.1916 33.1374 34.3354 39.4498 37.0602 44.1683C37.1504 44.3263 37.347 44.3026 37.4187 44.134C39.1582 39.9583 37.185 35.0317 33.8441 33.1085C33.7113 33.0321 33.6954 32.8582 33.8228 32.7712C36.6087 30.8665 37.4718 27.9369 37.748 26.5537C39.429 18.1496 30.9122 10.4989 21.9545 12.0928C17.145 12.9463 12.5055 15.8812 10.697 22.6414C9.65329 26.5353 10.5854 30.2763 12.386 33.5959C13.589 35.8141 16.173 38.9809 18.518 41.157L19.1873 41.813L27.8369 50.2409C30.0146 52.5461 31.677 55.149 31.677 58.4106C31.677 62.8946 28.145 67.1678 22.6503 67.1678C15.7003 67.1678 13.0765 60.4049 14.8903 56.7535C15.9181 54.688 18.7411 53.5762 20.3027 54.1136C20.4593 54.169 20.4673 54.4087 20.3186 54.4851C19.097 55.1253 18.1197 56.4057 18.1144 58.2789C18.1064 60.4392 19.6972 62.5284 22.5042 62.5284C25.6751 62.5284 29.1169 58.4738 24.3367 53.6368C21.1312 50.391 13.9874 44.0787 11.2626 39.3602C11.1724 39.2022 10.9758 39.2259 10.9041 39.3945C9.16464 43.5702 11.1378 48.4968 14.4787 50.42C14.6115 50.4964 14.6274 50.6703 14.5 50.7572C11.7141 52.662 10.851 55.5943 10.5748 56.9748C8.89376 65.3789 17.4106 73.0296 26.3683 71.4357C31.1751 70.5821 35.8173 67.6473 37.6258 60.887C38.6695 56.9932 37.7374 53.2522 35.9368 49.9326C34.7338 47.7144 32.1498 44.545 29.8048 42.3715" fill="white"/>
</g>
<defs>
<clipPath id="clip0_1115_2856">
<rect width="218" height="82" fill="#F5F5F8" transform="translate(0 0)"/>
</clipPath>
</defs>
</svg>
